# xmcd CD database file
#
# Track frame offsets:
#	183
#	16350
#	35980
#	53610
#	75325
#	95623
#	114328
#	132855
#	152983
#	170498
#	189430
#
# Disc length: 2660 seconds
#
# Revision: 0
# Processed by: cddbd v1.4PL0 Copyright (c) Steve Scherf et al.
# Submitted via: CDex 1.40Beta9
#
DISCID=860a620b
DTITLE=B.b. Queen - In The Mood
DYEAR=1991
DGENRE=Blues
TTITLE0=I'm In The Mood
TTITLE1=Now Love Me
TTITLE2=Blueshouse-Radio Mix
TTITLE3=Try To Find Me Back
TTITLE4=No Time To Hesitate
TTITLE5=(We Gonna) Rock This House
TTITLE6=Love You Nights
TTITLE7=(I Wanna Be) Next To You
TTITLE8=Soultrain
TTITLE9=Hey B.B. Be Careful Out There In The Jungle
TTITLE10=Blueshouse Ballad
EXTD=YEAR: 1991 ID3G: 0
EXTT0=
EXTT1=
EXTT2=
EXTT3=
EXTT4=
EXTT5=
EXTT6=
EXTT7=
EXTT8=
EXTT9=
EXTT10=
PLAYORDER=
